<svg width="35" height="46" viewBox="0 0 35 46" fill="none" xmlns="http://www.w3.org/2000/svg">
<path d="M17.3377 0C7.77411 0 0 7.77603 0 17.3377C0 24.7671 4.81447 31.4215 11.8031 33.7699L16.0981 44.5056C16.2988 45.012 16.7921 45.3459 17.3379 45.3459C17.8856 45.3459 18.3789 45.012 18.5776 44.5056L22.8727 33.7699C29.8613 31.4217 34.6758 24.7671 34.6758 17.3377C34.6758 7.77411 26.8995 0 17.3377 0ZM25.3409 24.0075C25.3409 24.7408 24.7407 25.341 24.0074 25.341H10.6702C9.9369 25.341 9.33671 24.7408 9.33671 24.0075V10.6704C9.33671 9.93705 9.9369 9.33686 10.6702 9.33686H24.0074C24.7407 9.33686 25.3409 9.93705 25.3409 10.6704V24.0075ZM18.6711 12.0038H22.6717V22.6741H12.0014V12.0038H16.002V14.6708C16.002 15.4042 16.6022 16.0044 17.3355 16.0044C18.0688 16.0044 18.669 15.4042 18.669 14.6708V12.0038H18.6711Z" fill="#1E1E1E"/>
<circle cx="17.096" cy="17.1522" r="11.2835" fill="#3EB13C"/>
<path d="M18.119 16.1916L20.974 9.22974L12.5352 18.2549L16.4231 18.4704L14.024 25.1547L22.0901 16.5305L18.119 16.1916Z" fill="white"/>
</svg>
